{
    "asset" : {
        "generator" : "Khronos glTF Blender I/O v1.1.46",
        "version" : "2.0"
    },
    "scene" : 0,
    "scenes" : [
        {
            "name" : "Scene",
            "nodes" : [
                0,
                1,
                3
            ]
        }
    ],
    "nodes" : [
        {
            "name" : "Light",
            "rotation" : [
                0.16907575726509094,
                0.7558803558349609,
                -0.27217137813568115,
                0.570947527885437
            ],
            "translation" : [
                6.470298767089844,
                5.372637748718262,
                -1.9979119300842285
            ]
        },
        {
            "name" : "Camera",
            "rotation" : [
                -0.005233509931713343,
                0.8369129300117493,
                -0.5472517609596252,
                -0.008053523488342762
            ],
            "translation" : [
                -0.01274772547185421,
                0.12183945626020432,
                -0.22825026512145996
            ]
        },
        {
            "mesh" : 0,
            "name" : "icing"
        },
        {
            "children" : [
                2
            ],
            "mesh" : 1,
            "name" : "dougnut",
            "rotation" : [
                0,
                -0.5655490159988403,
                0,
                0.8247146606445312
            ],
            "scale" : [
                0.05000000074505806,
                0.05000000074505806,
                0.05000000074505806
            ],
            "translation" : [
                0.0040852827951312065,
                0.023991554975509644,
                -0.0007871632697060704
            ]
        }
    ],
    "materials" : [
        {
            "doubleSided" : true,
            "emissiveFactor" : [
                0,
                0,
                0
            ],
            "name" : "pinkicing",
            "pbrMetallicRoughness" : {
                "baseColorFactor" : [
                    0.8882825970649719,
                    0.3323104977607727,
                    0.736198902130127,
                    0.949999988079071
                ],
                "metallicFactor" : 0,
                "roughnessFactor" : 0.1460251808166504
            }
        },
        {
            "doubleSided" : true,
            "emissiveFactor" : [
                0,
                0,
                0
            ],
            "name" : "dougnut",
            "pbrMetallicRoughness" : {
                "metallicFactor" : 0,
                "roughnessFactor" : 0.7552301287651062
            }
        }
    ],
    "meshes" : [
        {
            "name" : "Torus.003",
            "primitives" : [
                {
                    "attributes" : {
                        "POSITION" : 0,
                        "NORMAL" : 1,
                        "TEXCOORD_0" : 2
                    },
                    "indices" : 3,
                    "material" : 0
                }
            ]
        },
        {
            "name" : "Torus.001",
            "primitives" : [
                {
                    "attributes" : {
                        "POSITION" : 4,
                        "NORMAL" : 5,
                        "TEXCOORD_0" : 6
                    },
                    "indices" : 7,
                    "material" : 1
                }
            ]
        }
    ],
    "accessors" : [
        {
            "bufferView" : 0,
            "componentType" : 5126,
            "count" : 11388,
            "max" : [
                1.2227455377578735,
                0.5297977924346924,
                1.2278318405151367
            ],
            "min" : [
                -1.2544299364089966,
                -0.27170321345329285,
                -1.2175906896591187
            ],
            "type" : "VEC3"
        },
        {
            "bufferView" : 1,
            "componentType" : 5126,
            "count" : 11388,
            "type" : "VEC3"
        },
        {
            "bufferView" : 2,
            "componentType" : 5126,
            "count" : 11388,
            "type" : "VEC2"
        },
        {
            "bufferView" : 3,
            "componentType" : 5123,
            "count" : 68184,
            "type" : "SCALAR"
        },
        {
            "bufferView" : 4,
            "componentType" : 5126,
            "count" : 32572,
            "max" : [
                1.1537342071533203,
                0.48459500074386597,
                1.2050668001174927
            ],
            "min" : [
                -1.1565204858779907,
                -0.4786619246006012,
                -1.1788330078125
            ],
            "type" : "VEC3"
        },
        {
            "bufferView" : 5,
            "componentType" : 5126,
            "count" : 32572,
            "type" : "VEC3"
        },
        {
            "bufferView" : 6,
            "componentType" : 5126,
            "count" : 32572,
            "type" : "VEC2"
        },
        {
            "bufferView" : 7,
            "componentType" : 5123,
            "count" : 193026,
            "type" : "SCALAR"
        }
    ],
    "bufferViews" : [
        {
            "buffer" : 0,
            "byteLength" : 136656,
            "byteOffset" : 0
        },
        {
            "buffer" : 0,
            "byteLength" : 136656,
            "byteOffset" : 136656
        },
        {
            "buffer" : 0,
            "byteLength" : 91104,
            "byteOffset" : 273312
        },
        {
            "buffer" : 0,
            "byteLength" : 136368,
            "byteOffset" : 364416
        },
        {
            "buffer" : 0,
            "byteLength" : 390864,
            "byteOffset" : 500784
        },
        {
            "buffer" : 0,
            "byteLength" : 390864,
            "byteOffset" : 891648
        },
        {
            "buffer" : 0,
            "byteLength" : 260576,
            "byteOffset" : 1282512
        },
        {
            "buffer" : 0,
            "byteLength" : 386052,
            "byteOffset" : 1543088
        }
    ],
    "buffers" : [
        {
            "byteLength" : 1929140,
            "uri" : "data:application/octet-stream;base64,"
        }
    ]
}
