{
    "asset" : {
        "generator" : "Khronos glTF Blender I/O v3.3.32",
        "version" : "2.0"
    },
    "extensionsUsed" : [
        "KHR_lights_punctual"
    ],
    "extensionsRequired" : [
        "KHR_lights_punctual"
    ],
    "extensions" : {
        "KHR_lights_punctual" : {
            "lights" : [
                {
                    "color" : [
                        1,
                        1,
                        1
                    ],
                    "intensity" : 1000,
                    "type" : "point",
                    "name" : "Light"
                }
            ]
        }
    },
    "scene" : 0,
    "scenes" : [
        {
            "name" : "Scene",
            "nodes" : [
                0,
                1
            ]
        }
    ],
    "nodes" : [
        {
            "extensions" : {
                "KHR_lights_punctual" : {
                    "light" : 0
                }
            },
            "name" : "Light",
            "rotation" : [
                -0.2841663062572479,
                0.7269423604011536,
                0.34203392267227173,
                0.5232754349708557
            ],
            "translation" : [
                1.6689679622650146,
                2.07792329788208,
                1.9987674951553345
            ]
        },
        {
            "mesh" : 0,
            "name" : "path26194",
            "rotation" : [
                0.7071068286895752,
                0,
                0,
                0.7071068286895752
            ],
            "scale" : [
                7.223435878753662,
                7.223435878753662,
                7.223435878753662
            ],
            "translation" : [
                0,
                0.2484862059354782,
                0.3787791132926941
            ]
        }
    ],
    "animations" : [
        {
            "channels" : [
                {
                    "sampler" : 0,
                    "target" : {
                        "node" : 1,
                        "path" : "rotation"
                    }
                }
            ],
            "name" : "path26194Action",
            "samplers" : [
                {
                    "input" : 4,
                    "interpolation" : "LINEAR",
                    "output" : 5
                }
            ]
        }
    ],
    "materials" : [
        {
            "doubleSided" : true,
            "name" : "SVGMat.002",
            "pbrMetallicRoughness" : {
                "baseColorFactor" : [
                    0.9150985479354858,
                    0.7487982511520386,
                    0.9258275628089905,
                    1
                ],
                "metallicFactor" : 0.9812206625938416,
                "roughnessFactor" : 0.04694835841655731
            }
        }
    ],
    "meshes" : [
        {
            "name" : "path26194",
            "primitives" : [
                {
                    "attributes" : {
                        "POSITION" : 0,
                        "NORMAL" : 1,
                        "TEXCOORD_0" : 2
                    },
                    "indices" : 3,
                    "material" : 0
                }
            ]
        }
    ],
    "accessors" : [
        {
            "bufferView" : 0,
            "componentType" : 5126,
            "count" : 9115,
            "max" : [
                0.07627058774232864,
                0.010999999940395355,
                0.03420248255133629
            ],
            "min" : [
                -0.06662916392087936,
                -0.010999999940395355,
                -0.02623744122684002
            ],
            "type" : "VEC3"
        },
        {
            "bufferView" : 1,
            "componentType" : 5126,
            "count" : 9115,
            "type" : "VEC3"
        },
        {
            "bufferView" : 2,
            "componentType" : 5126,
            "count" : 9115,
            "type" : "VEC2"
        },
        {
            "bufferView" : 3,
            "componentType" : 5123,
            "count" : 37392,
            "type" : "SCALAR"
        },
        {
            "bufferView" : 4,
            "componentType" : 5126,
            "count" : 300,
            "max" : [
                9.966666666666667
            ],
            "min" : [
                0
            ],
            "type" : "SCALAR"
        },
        {
            "bufferView" : 5,
            "componentType" : 5126,
            "count" : 300,
            "type" : "VEC4"
        }
    ],
    "bufferViews" : [
        {
            "buffer" : 0,
            "byteLength" : 109380,
            "byteOffset" : 0,
            "target" : 34962
        },
        {
            "buffer" : 0,
            "byteLength" : 109380,
            "byteOffset" : 109380,
            "target" : 34962
        },
        {
            "buffer" : 0,
            "byteLength" : 72920,
            "byteOffset" : 218760,
            "target" : 34962
        },
        {
            "buffer" : 0,
            "byteLength" : 74784,
            "byteOffset" : 291680,
            "target" : 34963
        },
        {
            "buffer" : 0,
            "byteLength" : 1200,
            "byteOffset" : 366464
        },
        {
            "buffer" : 0,
            "byteLength" : 4800,
            "byteOffset" : 367664
        }
    ],
    "buffers" : [
        {
            "byteLength" : 372464,
            "uri" : "data:application/octet-stream;base64,"
        }
    ]
}
